<svg id="Camada_1" data-name="Camada 1" xmlns="http://www.w3.org/2000/svg" xmlns:xlink="http://www.w3.org/1999/xlink" viewBox="0 0 578.67 488"><defs><style>.cls-1{fill:url(#linear-gradient);}.cls-2{fill:url(#linear-gradient-2);}.cls-3{fill:url(#linear-gradient-3);}.cls-4{fill:url(#radial-gradient);}</style><linearGradient id="linear-gradient" x1="495.67" y1="160.68" x2="550.95" y2="160.68" gradientUnits="userSpaceOnUse"><stop offset="0" stop-color="#bf953f"/><stop offset="0.99" stop-color="#fcf6ba"/></linearGradient><linearGradient id="linear-gradient-2" x1="415.27" y1="118.11" x2="551.15" y2="118.11" xlink:href="#linear-gradient"/><linearGradient id="linear-gradient-3" x1="142.04" y1="324.58" x2="449.42" y2="324.58" gradientUnits="userSpaceOnUse"><stop offset="0.01" stop-color="#fdf6ba"/><stop offset="0.75" stop-color="#c19943"/><stop offset="1" stop-color="#bf953f"/></linearGradient><radialGradient id="radial-gradient" cx="94.34" cy="200.22" r="367.07" gradientUnits="userSpaceOnUse"><stop offset="0.01" stop-color="#fdf6ba"/><stop offset="0.48" stop-color="#bf953f"/></radialGradient></defs><polygon class="cls-1" points="550.95 94.06 495.67 165.81 516.77 227.3 550.95 94.06"/><polygon class="cls-2" points="551.15 93.99 474.49 142.23 415.27 115.4 551.15 93.99"/><path class="cls-3" d="M142,405.25a194.66,194.66,0,0,0,111.71,35.06c108.07,0,195.67-87.61,195.67-195.68a196.9,196.9,0,0,0-3.32-35.77C391.85,281.83,260.21,437,142,405.25Z"/><path class="cls-4" d="M438.22,179.33C411.32,103.38,338.91,49,253.75,49,145.67,49,58.07,136.56,58.07,244.63a196,196,0,0,0,5,44.18C48.28,291.08,32.85,276,32.85,276a113.44,113.44,0,0,0,39.82,42.82l.2.51a141.17,141.17,0,0,0,20.35,10.07,128.71,128.71,0,0,0,28.53,8C189.29,349.13,290.36,318.72,438.22,179.33Z"/></svg>