<svg id="Camada_1" data-name="Camada 1" xmlns="http://www.w3.org/2000/svg" xmlns:xlink="http://www.w3.org/1999/xlink" viewBox="0 0 3047.33 488"><defs><style>.cls-1{fill:url(#linear-gradient);}.cls-2{fill:url(#linear-gradient-2);}.cls-3{fill:url(#linear-gradient-3);}.cls-4{fill:url(#radial-gradient);}.cls-5{fill:#b78628;}.cls-6{fill:#eeb609;}</style><linearGradient id="linear-gradient" x1="495.67" y1="327.32" x2="550.95" y2="327.32" gradientTransform="matrix(1, 0, 0, -1, 0, 488)" gradientUnits="userSpaceOnUse"><stop offset="0" stop-color="#bf953f"/><stop offset="0.99" stop-color="#fcf6ba"/></linearGradient><linearGradient id="linear-gradient-2" x1="415.27" y1="369.89" x2="551.15" y2="369.89" xlink:href="#linear-gradient"/><linearGradient id="linear-gradient-3" x1="142" y1="163.41" x2="449.38" y2="163.41" gradientTransform="matrix(1, 0, 0, -1, 0, 488)" gradientUnits="userSpaceOnUse"><stop offset="0.01" stop-color="#fdf6ba"/><stop offset="0.75" stop-color="#c19943"/><stop offset="1" stop-color="#bf953f"/></linearGradient><radialGradient id="radial-gradient" cx="94.34" cy="287.78" r="367.07" gradientTransform="matrix(1, 0, 0, -1, 0, 488)" gradientUnits="userSpaceOnUse"><stop offset="0.01" stop-color="#fdf6ba"/><stop offset="0.48" stop-color="#bf953f"/></radialGradient></defs><polygon class="cls-1" points="550.95 94.06 495.67 165.81 516.77 227.3 550.95 94.06"/><polygon class="cls-2" points="551.15 93.99 474.49 142.23 415.27 115.4 551.15 93.99"/><path class="cls-3" d="M142,405.25a194.73,194.73,0,0,0,111.71,35.06c108.07,0,195.67-87.61,195.67-195.68a196.91,196.91,0,0,0-3.32-35.77C391.85,281.83,260.21,437,142,405.25Z"/><path class="cls-4" d="M438.22,179.33A195.7,195.7,0,0,0,253.75,49C145.67,49,58.07,136.56,58.07,244.63a196.08,196.08,0,0,0,5,44.18C48.28,291.08,32.85,276,32.85,276a113.39,113.39,0,0,0,39.82,42.82l.2.51A140.46,140.46,0,0,0,93.22,329.4a128.47,128.47,0,0,0,28.53,8C189.29,349.13,290.36,318.72,438.22,179.33Z"/><path class="cls-5" d="M810.28,206.34V119.76h37.48q11.63,0,20,3.77a29.36,29.36,0,0,1,13,10.82,30,30,0,0,1,4.58,16.7,28.56,28.56,0,0,1-17.57,27.58q-8.4,3.84-20,3.84H821.29l9.15-9v32.9Zm20.16-30.68-9.15-9.52h25.35q9.15,0,13.86-4t4.7-11.13q0-7.17-4.7-11.07t-13.86-3.9H821.29l9.15-9.52Z"/><path class="cls-5" d="M900.82,206.34V119.76h37.47q11.63,0,20,3.77a29.36,29.36,0,0,1,13,10.82,30,30,0,0,1,4.57,16.7,29.9,29.9,0,0,1-4.57,16.76,28.69,28.69,0,0,1-13,10.64q-8.42,3.65-20,3.65H911.82l9.16-8.66v32.9ZM921,175.66l-9.16-9.52h25.36q9.15,0,13.85-4t4.7-11.13q0-7.17-4.7-11.07t-13.85-3.9H911.82l9.16-9.52Zm35,30.68-21.77-31.42h21.52l21.77,31.42Z"/><path class="cls-5" d="M1035,207.82a52.07,52.07,0,0,1-18.92-3.34,45.7,45.7,0,0,1-15.09-9.4,42.45,42.45,0,0,1-10-14.22,47,47,0,0,1,0-35.68A42.75,42.75,0,0,1,1001,131a46.07,46.07,0,0,1,15-9.4,51.76,51.76,0,0,1,18.86-3.34,52.65,52.65,0,0,1,18.86,3.28,45.2,45.2,0,0,1,15,9.34,42.56,42.56,0,0,1,10,14.22,47.17,47.17,0,0,1,0,35.81,42.45,42.45,0,0,1-10,14.29,45,45,0,0,1-15,9.33A52.08,52.08,0,0,1,1035,207.82Zm-.12-16.94a27.53,27.53,0,0,0,10.7-2,25.94,25.94,0,0,0,8.59-5.82,26.64,26.64,0,0,0,5.75-8.78,31.59,31.59,0,0,0,0-22.39,26.85,26.85,0,0,0-5.75-8.78,26.06,26.06,0,0,0-8.59-5.81,27.53,27.53,0,0,0-10.7-2,27.94,27.94,0,0,0-10.76,2,25.2,25.2,0,0,0-8.6,5.81,27.51,27.51,0,0,0-5.69,8.78,31.74,31.74,0,0,0,0,22.39,27.29,27.29,0,0,0,5.69,8.78,25.09,25.09,0,0,0,8.6,5.82A27.94,27.94,0,0,0,1034.89,190.88Z"/><path class="cls-5" d="M1118.74,206.34h-20.16V119.76H1164v16.08h-45.27Zm-1.6-47.62h41.55V174.8h-41.55Z"/><path class="cls-5" d="M1198.77,190.26h47.12v16.08h-67V119.76h65.42v16.08h-45.51Zm-1.49-35.75H1239v15.71h-41.69Z"/><path class="cls-5" d="M1291.65,207.82a71.47,71.47,0,0,1-20-2.78q-9.59-2.79-15.4-7.24l6.8-15.09a47.5,47.5,0,0,0,13.11,6.5,49,49,0,0,0,15.46,2.53,30.74,30.74,0,0,0,9.59-1.23,12,12,0,0,0,5.38-3.28,7.16,7.16,0,0,0,1.73-4.76,6.54,6.54,0,0,0-2.72-5.51,22.39,22.39,0,0,0-7.24-3.34q-4.52-1.29-9.83-2.47t-10.7-2.85a42.88,42.88,0,0,1-9.89-4.45,20.91,20.91,0,0,1-7.18-7.3,22,22,0,0,1-2.65-11.31,24.45,24.45,0,0,1,3.95-13.55q4-6.12,12.06-9.77t20.35-3.65a67.28,67.28,0,0,1,16.14,2,47.77,47.77,0,0,1,13.91,5.69l-6.3,15.09a51.09,51.09,0,0,0-12-5,45.71,45.71,0,0,0-11.88-1.67,28.79,28.79,0,0,0-9.52,1.3,11.1,11.1,0,0,0-5.26,3.53,8,8,0,0,0-1.67,4.94,6.68,6.68,0,0,0,2.73,5.57,19.89,19.89,0,0,0,7.17,3.28q4.46,1.17,9.89,2.35a108.82,108.82,0,0,1,10.76,2.9,47.85,47.85,0,0,1,9.78,4.4,20.13,20.13,0,0,1,10,18.36,23.65,23.65,0,0,1-4,13.36q-4,6.06-12.18,9.77T1291.65,207.82Z"/><path class="cls-5" d="M1371.8,207.82a71.49,71.49,0,0,1-20-2.78q-9.58-2.79-15.4-7.24l6.81-15.09a47.36,47.36,0,0,0,13.11,6.5,48.94,48.94,0,0,0,15.46,2.53,30.67,30.67,0,0,0,9.58-1.23,11.87,11.87,0,0,0,5.38-3.28,7.12,7.12,0,0,0,1.74-4.76,6.53,6.53,0,0,0-2.73-5.51,22.33,22.33,0,0,0-7.23-3.34q-4.51-1.29-9.83-2.47T1358,168.3a42.76,42.76,0,0,1-9.9-4.45,20.79,20.79,0,0,1-7.17-7.3,21.89,21.89,0,0,1-2.66-11.31,24.46,24.46,0,0,1,4-13.55q4-6.12,12.06-9.77t20.34-3.65a67.22,67.22,0,0,1,16.14,2,48,48,0,0,1,13.92,5.69L1398.39,141a50.92,50.92,0,0,0-12-5,45.63,45.63,0,0,0-11.87-1.67,28.75,28.75,0,0,0-9.52,1.3,11,11,0,0,0-5.26,3.53,8,8,0,0,0-1.67,4.94,6.7,6.7,0,0,0,2.72,5.57A20,20,0,0,0,1368,153q4.45,1.17,9.9,2.35a109.56,109.56,0,0,1,10.76,2.9,48,48,0,0,1,9.77,4.4,20.12,20.12,0,0,1,10,18.36,23.65,23.65,0,0,1-4,13.36q-4,6.06-12.18,9.77T1371.8,207.82Z"/><path class="cls-5" d="M1423.37,206.34V119.76h20.16v86.58Z"/><path class="cls-5" d="M1507.23,207.82a52,52,0,0,1-18.92-3.34,45.5,45.5,0,0,1-15.09-9.4,42.45,42.45,0,0,1-10-14.22,46.84,46.84,0,0,1,0-35.68,42.75,42.75,0,0,1,10-14.17,46,46,0,0,1,15-9.4,51.81,51.81,0,0,1,18.87-3.34,52.65,52.65,0,0,1,18.86,3.28,45.06,45.06,0,0,1,15,9.34,42.45,42.45,0,0,1,10,14.22,47.17,47.17,0,0,1,0,35.81,42.33,42.33,0,0,1-10,14.29,44.87,44.87,0,0,1-15,9.33A52.08,52.08,0,0,1,1507.23,207.82Zm-.12-16.94a27.44,27.44,0,0,0,10.69-2,25.87,25.87,0,0,0,8.6-5.82,26.8,26.8,0,0,0,5.75-8.78,31.74,31.74,0,0,0,0-22.39,27,27,0,0,0-5.75-8.78,26,26,0,0,0-8.6-5.81,27.44,27.44,0,0,0-10.69-2,28,28,0,0,0-10.77,2,25.26,25.26,0,0,0-8.59,5.81,27.51,27.51,0,0,0-5.69,8.78,31.74,31.74,0,0,0,0,22.39,27.29,27.29,0,0,0,5.69,8.78,25.14,25.14,0,0,0,8.59,5.82A28,28,0,0,0,1507.11,190.88Z"/><path class="cls-5" d="M1570.8,206.34V119.76h16.58l51.08,62.34h-8V119.76h19.79v86.58h-16.58L1582.55,144h8v62.34Z"/><path class="cls-5" d="M1660.6,206.34l38.46-86.58h19.79l38.84,86.58h-21l-31.79-76.44h8l-31.78,76.44ZM1680,187.78l5.07-15.21h44.78l5.19,15.21Z"/><path class="cls-5" d="M1768,206.34V119.76h20.16V190h43.17v16.33Z"/><path class="cls-5" d="M1898.07,206.34V136.08h-27.71V119.76h75.45v16.32H1918.1v70.26Z"/><path class="cls-5" d="M1977.72,190.26h47.12v16.08h-67V119.76h65.43v16.08h-45.51Zm-1.49-35.75h41.68v15.71h-41.68Z"/><path class="cls-5" d="M2083.47,207.82a51.73,51.73,0,0,1-18.62-3.28A43.22,43.22,0,0,1,2040.11,181a47.45,47.45,0,0,1,0-35.87,42.86,42.86,0,0,1,9.9-14.22,44.4,44.4,0,0,1,15-9.34,54.94,54.94,0,0,1,39,.62,39.53,39.53,0,0,1,15.33,11.44l-13,11.87a29.42,29.42,0,0,0-9.84-7.66,27.49,27.49,0,0,0-11.93-2.6,29.55,29.55,0,0,0-11.13,2,25.68,25.68,0,0,0-14.54,14.53,32.07,32.07,0,0,0,0,22.51,25.74,25.74,0,0,0,14.54,14.54,29.55,29.55,0,0,0,11.13,2,27.11,27.11,0,0,0,11.93-2.66,30.17,30.17,0,0,0,9.84-7.73l13,11.87a40,40,0,0,1-15.33,11.5A51.24,51.24,0,0,1,2083.47,207.82Z"/><path class="cls-5" d="M2154.09,206.34h-20.16V119.76h20.16Zm40.69-35.5h-42.3V153.9h42.3Zm-1.49-51.08h20v86.58h-20Z"/><path class="cls-5" d="M2235.1,206.34V119.76h16.57l51.08,62.34h-8V119.76h19.79v86.58h-16.57L2246.85,144h8v62.34Z"/><path class="cls-5" d="M2378.32,207.82a52.07,52.07,0,0,1-18.92-3.34,45.7,45.7,0,0,1-15.09-9.4,42.28,42.28,0,0,1-9.95-14.22,46.84,46.84,0,0,1,0-35.68,42.58,42.58,0,0,1,9.95-14.17,46.17,46.17,0,0,1,15-9.4,51.8,51.8,0,0,1,18.86-3.34,52.65,52.65,0,0,1,18.86,3.28,45.2,45.2,0,0,1,15,9.34,42.45,42.45,0,0,1,10,14.22,47.3,47.3,0,0,1,0,35.81,42.33,42.33,0,0,1-10,14.29,45,45,0,0,1-15,9.33A52.08,52.08,0,0,1,2378.32,207.82Zm-.12-16.94a27.49,27.49,0,0,0,10.7-2,26,26,0,0,0,8.6-5.82,26.8,26.8,0,0,0,5.75-8.78,31.74,31.74,0,0,0,0-22.39,27,27,0,0,0-5.75-8.78,26.1,26.1,0,0,0-8.6-5.81,27.49,27.49,0,0,0-10.7-2,27.94,27.94,0,0,0-10.76,2,25.3,25.3,0,0,0-8.6,5.81,27.68,27.68,0,0,0-5.69,8.78,31.74,31.74,0,0,0,0,22.39,27.46,27.46,0,0,0,5.69,8.78,25.18,25.18,0,0,0,8.6,5.82A27.94,27.94,0,0,0,2378.2,190.88Z"/><path class="cls-5" d="M2441.9,206.34V119.76h20.16V190h43.16v16.33Z"/><path class="cls-5" d="M2558.41,207.82a52.08,52.08,0,0,1-18.93-3.34,45.7,45.7,0,0,1-15.09-9.4,42.56,42.56,0,0,1-9.95-14.22,46.84,46.84,0,0,1,0-35.68,42.87,42.87,0,0,1,9.95-14.17,46.17,46.17,0,0,1,15-9.4,51.8,51.8,0,0,1,18.86-3.34,52.7,52.7,0,0,1,18.87,3.28,45.26,45.26,0,0,1,15,9.34,42.45,42.45,0,0,1,10,14.22,47.3,47.3,0,0,1,0,35.81,42.33,42.33,0,0,1-10,14.29,45.07,45.07,0,0,1-15,9.33A52.12,52.12,0,0,1,2558.41,207.82Zm-.13-16.94a27.49,27.49,0,0,0,10.7-2,26,26,0,0,0,8.6-5.82,26.8,26.8,0,0,0,5.75-8.78,31.74,31.74,0,0,0,0-22.39,27,27,0,0,0-5.75-8.78,26.1,26.1,0,0,0-8.6-5.81,27.49,27.49,0,0,0-10.7-2,28,28,0,0,0-10.76,2,25.16,25.16,0,0,0-8.59,5.81,27.34,27.34,0,0,0-5.69,8.78,31.74,31.74,0,0,0,0,22.39,27.13,27.13,0,0,0,5.69,8.78,25,25,0,0,0,8.59,5.82A28,28,0,0,0,2558.28,190.88Z"/><path class="cls-5" d="M2663.78,207.82a52.91,52.91,0,0,1-18.92-3.28,43.09,43.09,0,0,1-24.8-23.56,47.45,47.45,0,0,1,0-35.87,42.45,42.45,0,0,1,10-14.22,45.07,45.07,0,0,1,15.09-9.34,57.38,57.38,0,0,1,39.76.56,41.2,41.2,0,0,1,15.53,11.13l-12.75,11.87a31.85,31.85,0,0,0-10.38-7.48,30.47,30.47,0,0,0-12.25-2.41,30.91,30.91,0,0,0-11.38,2,26.37,26.37,0,0,0-9,5.75,25.44,25.44,0,0,0-5.82,8.78,31.57,31.57,0,0,0,0,22.33,25.32,25.32,0,0,0,5.82,8.84,27.12,27.12,0,0,0,8.9,5.81,29.41,29.41,0,0,0,11.32,2.11,33.28,33.28,0,0,0,22.51-8.54l11.38,14.47a51.55,51.55,0,0,1-16.45,8.23A64.5,64.5,0,0,1,2663.78,207.82Zm16.7-13.6V161.69h18.31v35.12Z"/><path class="cls-5" d="M2740.1,206.34V171l4.57,12.12-38.22-63.32h21.4L2757,168.24H2744.8l29.31-48.48h19.54l-38,63.32,4.58-12.12v35.38Z"/><path class="cls-6" d="M631.19,354.76V268.18H663.6q11,0,18.92,3.53a27.14,27.14,0,0,1,12.18,10.14q4.27,6.61,4.27,16a28.4,28.4,0,0,1-4.27,15.77,27.16,27.16,0,0,1-12.18,10.15q-7.92,3.53-18.92,3.52H636.26l4.09-4.2v31.66Zm9.16-30.92-4.09-4.33h27.09q13,0,19.73-5.69t6.74-16q0-10.38-6.74-16.07t-19.73-5.69H636.26l4.09-4.33Zm50,30.92-22.26-31.42h9.89l22.39,31.42Z"/><path class="cls-6" d="M732.86,346.84h52.07v7.92H723.71V268.18h59.36v7.92H732.86Zm-1-39.95h45.76v7.8H731.87Z"/><path class="cls-6" d="M846.9,355.5a48.54,48.54,0,0,1-18.06-3.28A42.15,42.15,0,0,1,805,329a47,47,0,0,1,0-35.12,42,42,0,0,1,9.52-14A43.27,43.27,0,0,1,829,270.72,48.54,48.54,0,0,1,847,267.44a49.33,49.33,0,0,1,17.68,3.15,35.49,35.49,0,0,1,14,9.46l-5.81,5.82A32.32,32.32,0,0,0,861.12,278a39.33,39.33,0,0,0-13.85-2.41,38.88,38.88,0,0,0-14.48,2.66,34.6,34.6,0,0,0-11.62,7.54,36.21,36.21,0,0,0,0,51.33,34.47,34.47,0,0,0,11.62,7.55,38.88,38.88,0,0,0,14.48,2.66,38.27,38.27,0,0,0,13.85-2.48A32.85,32.85,0,0,0,872.87,337l5.81,5.81a36.07,36.07,0,0,1-14,9.53A48.84,48.84,0,0,1,846.9,355.5Z"/><path class="cls-6" d="M901.32,354.76V268.18h32.4q11,0,18.92,3.53a27.22,27.22,0,0,1,12.19,10.14q4.26,6.61,4.26,16a28.48,28.48,0,0,1-4.26,15.77,27.24,27.24,0,0,1-12.19,10.15q-7.9,3.53-18.92,3.52H906.39l4.08-4.2v31.66Zm9.15-30.92-4.08-4.33h27.08q13,0,19.73-5.69t6.74-16q0-10.38-6.74-16.07t-19.73-5.69H906.39l4.08-4.33Zm50,30.92-22.27-31.42h9.9l22.38,31.42Z"/><path class="cls-6" d="M1028.71,355.5q-16.58,0-26.1-9.52t-9.52-28.2v-49.6h9.15v49.23q0,15.33,6.93,22.63t19.54,7.3q12.74,0,19.66-7.3t6.93-22.63V268.18h8.9v49.6q0,18.68-9.46,28.2T1028.71,355.5Z"/><path class="cls-6" d="M1094.88,354.76V268.18H1104v86.58Z"/><path class="cls-6" d="M1152.14,354.76V276.1h-30.42v-7.92h70v7.92h-30.43v78.66Z"/><path class="cls-6" d="M1209.41,354.76V268.18H1217l39.58,67.53h-4l39.21-67.53h7.54v86.58h-8.78V281.91h2.11l-36.12,61.84h-4.33l-36.36-61.84h2.35v72.85Z"/><path class="cls-6" d="M1339.77,346.84h52.07v7.92h-61.23V268.18H1390v7.92h-50.21Zm-1-39.95h45.76v7.8h-45.76Z"/><path class="cls-6" d="M1416.45,354.76V268.18H1424l59.74,75.2h-4v-75.2h9v86.58h-7.55l-59.61-75.2h3.95v75.2Z"/><path class="cls-6" d="M1536.92,354.76V276.1h-30.43v-7.92h70v7.92h-30.43v78.66Z"/><path class="cls-6" d="M1646.5,354.76V276.1h-30.43v-7.92h70v7.92h-30.43v78.66Z"/><path class="cls-6" d="M1703.76,354.76V268.18h32.41q11,0,18.92,3.53a27.14,27.14,0,0,1,12.18,10.14q4.27,6.61,4.27,16a28.4,28.4,0,0,1-4.27,15.77,27.16,27.16,0,0,1-12.18,10.15q-7.92,3.53-18.92,3.52h-27.34l4.09-4.2v31.66Zm9.16-30.92-4.09-4.33h27.09q13,0,19.73-5.69t6.74-16q0-10.38-6.74-16.07t-19.73-5.69h-27.09l4.09-4.33Zm50,30.92-22.26-31.42h9.9l22.38,31.42Z"/><path class="cls-6" d="M1782.42,354.76,1822,268.18h9l39.58,86.58H1861L1824.6,273.5h3.71L1792,354.76ZM1798,331.63l2.72-7.42h50.34l2.72,7.42Z"/><path class="cls-6" d="M1888.05,354.76V268.18h9.15v86.58Z"/><path class="cls-6" d="M1928.49,354.76V268.18H1936l59.74,75.2h-4v-75.2h9v86.58h-7.55l-59.61-75.2h4v75.2Z"/><path class="cls-6" d="M2032.14,354.76V268.18h9.15v86.58Z"/><path class="cls-6" d="M2072.58,354.76V268.18h7.55l59.73,75.2h-4v-75.2h9v86.58h-7.55l-59.61-75.2h3.95v75.2Z"/><path class="cls-6" d="M2214.2,355.5a49.43,49.43,0,0,1-18.25-3.28,43.23,43.23,0,0,1-14.47-9.21,42.18,42.18,0,0,1-9.52-14,47,47,0,0,1,0-35.12,41.75,41.75,0,0,1,9.58-14,43.84,43.84,0,0,1,14.54-9.21,49.34,49.34,0,0,1,18.24-3.28,51.13,51.13,0,0,1,18.12,3.09,36.05,36.05,0,0,1,14,9.4l-5.69,5.81a32.52,32.52,0,0,0-12-7.79,41.64,41.64,0,0,0-14.1-2.35,40,40,0,0,0-14.78,2.66,34.92,34.92,0,0,0-19.54,18.92,37.94,37.94,0,0,0,0,28.51,34.83,34.83,0,0,0,19.54,19,39.64,39.64,0,0,0,14.66,2.66,43.61,43.61,0,0,0,14-2.23,32.64,32.64,0,0,0,12.18-7.54l5.19,6.92a41.73,41.73,0,0,1-14.47,8.23A54.11,54.11,0,0,1,2214.2,355.5Zm23-12.12V311.47H2246v33Z"/><path class="cls-6" d="M2348,355.5a48.61,48.61,0,0,1-18.06-3.28A42.23,42.23,0,0,1,2306.15,329a47,47,0,0,1,0-35.12,42.2,42.2,0,0,1,9.53-14,43.17,43.17,0,0,1,14.41-9.21,48.54,48.54,0,0,1,18.06-3.28,49.33,49.33,0,0,1,17.68,3.15,35.49,35.49,0,0,1,14,9.46l-5.81,5.82a32.32,32.32,0,0,0-11.75-7.86,39.35,39.35,0,0,0-13.86-2.41,38.82,38.82,0,0,0-14.47,2.66,34.5,34.5,0,0,0-11.62,7.54,36.21,36.21,0,0,0,0,51.33,34.37,34.37,0,0,0,11.62,7.55,38.82,38.82,0,0,0,14.47,2.66,38.28,38.28,0,0,0,13.86-2.48A32.85,32.85,0,0,0,2374,337l5.81,5.81a36.07,36.07,0,0,1-14,9.53A48.85,48.85,0,0,1,2348,355.5Z"/><path class="cls-6" d="M2438.43,355.5a49.08,49.08,0,0,1-18.12-3.28,42.57,42.57,0,0,1-24-23.25,46.74,46.74,0,0,1,0-35,42.71,42.71,0,0,1,23.93-23.25,51.69,51.69,0,0,1,36.24,0,43.17,43.17,0,0,1,14.41,9.21,42,42,0,0,1,9.52,14,46.92,46.92,0,0,1,0,35.12,42,42,0,0,1-9.52,14,43.17,43.17,0,0,1-14.41,9.21A48.54,48.54,0,0,1,2438.43,355.5Zm0-8.16a38.32,38.32,0,0,0,14.41-2.66,34,34,0,0,0,11.51-7.55,35.07,35.07,0,0,0,7.6-11.38,38.87,38.87,0,0,0,0-28.57,35.28,35.28,0,0,0-7.6-11.38,34.13,34.13,0,0,0-11.51-7.54,38.32,38.32,0,0,0-14.41-2.66,38.86,38.86,0,0,0-14.47,2.66,34.52,34.52,0,0,0-19.29,18.92,38.71,38.71,0,0,0,0,28.51,34.43,34.43,0,0,0,19.29,19A38.86,38.86,0,0,0,2438.43,347.34Z"/><path class="cls-6" d="M2507.45,354.76V268.18H2515l39.58,67.53h-4l39.21-67.53h7.55v86.58h-8.79V281.91h2.11l-36.12,61.84h-4.33l-36.36-61.84h2.35v72.85Z"/><path class="cls-6" d="M2628.66,354.76V268.18h32.4q11,0,18.93,3.53a27.24,27.24,0,0,1,12.18,10.14,29,29,0,0,1,4.27,16,28.48,28.48,0,0,1-4.27,15.77A27.64,27.64,0,0,1,2680,323.84q-7.92,3.59-18.93,3.58h-27.33l4.08-4.32v31.66Zm9.15-30.92-4.08-4.46h27.08q13,0,19.73-5.62t6.74-15.9q0-10.38-6.74-16.07t-19.73-5.69h-27.08l4.08-4.33Z"/><path class="cls-6" d="M2701.13,354.76l39.58-86.58h9l39.58,86.58h-9.65l-36.36-81.26H2747l-36.36,81.26Zm15.59-23.13,2.72-7.42h50.34l2.72,7.42Z"/><path class="cls-6" d="M2806.76,354.76V268.18h7.54l59.74,75.2h-4v-75.2h9v86.58h-7.54L2812,279.56h4v75.2Z"/><path class="cls-6" d="M2931.06,354.76V322.6l2.1,5.69-36.73-60.11h9.77L2938.48,321h-5.19l32.28-52.81h9.15L2938,328.29l2.1-5.69v32.16Z"/></svg>