<?xml version="1.0" encoding="utf-8"?>
<!-- Generator: Adobe Illustrator 26.0.2, SVG Export Plug-In . SVG Version: 6.00 Build 0)  -->
<svg version="1.1" id="Camada_1" xmlns="http://www.w3.org/2000/svg" xmlns:xlink="http://www.w3.org/1999/xlink" x="0px" y="0px"
	 viewBox="0 0 1250.7 658.7" style="enable-background:new 0 0 1250.7 658.7;" xml:space="preserve">
<style type="text/css">
	.st0{fill:url(#SVGID_1_);}
	.st1{fill:url(#SVGID_00000013876572957741478950000007466248147042206614_);}
	.st2{fill:url(#SVGID_00000119827425306965998700000003765331650595559312_);}
	.st3{fill:url(#SVGID_00000001651125234677164860000004701068871284852131_);}
	.st4{fill:#B78628;}
	.st5{fill:#EEB609;}
</style>
<g>
	
		<linearGradient id="SVGID_1_" gradientUnits="userSpaceOnUse" x1="826.6667" y1="497.3" x2="881.9667" y2="497.3" gradientTransform="matrix(1 0 0 -1 0 658)">
		<stop  offset="0" style="stop-color:#BF953F"/>
		<stop  offset="0.9949" style="stop-color:#FCF6BA"/>
	</linearGradient>
	<polygon class="st0" points="882,94.1 826.7,165.8 847.8,227.3 	"/>
	
		<linearGradient id="SVGID_00000109743688971335812310000016516606907772540054_" gradientUnits="userSpaceOnUse" x1="746.2667" y1="539.9" x2="882.1667" y2="539.9" gradientTransform="matrix(1 0 0 -1 0 658)">
		<stop  offset="0" style="stop-color:#BF953F"/>
		<stop  offset="0.9949" style="stop-color:#FCF6BA"/>
	</linearGradient>
	<polygon style="fill:url(#SVGID_00000109743688971335812310000016516606907772540054_);" points="882.2,94 805.5,142.2 
		746.3,115.4 	"/>
	
		<linearGradient id="SVGID_00000123426455133475823530000006948845849345655185_" gradientUnits="userSpaceOnUse" x1="473.0667" y1="333.45" x2="780.4667" y2="333.45" gradientTransform="matrix(1 0 0 -1 0 658)">
		<stop  offset="5.102040e-03" style="stop-color:#FDF6BA"/>
		<stop  offset="0.75" style="stop-color:#C19943"/>
		<stop  offset="1" style="stop-color:#BF953F"/>
	</linearGradient>
	<path style="fill:url(#SVGID_00000123426455133475823530000006948845849345655185_);" d="M473.1,405.2
		c31.7,22.1,70.2,35.1,111.7,35.1c108.1,0,195.7-87.6,195.7-195.7c0-12.2-1.2-24.2-3.3-35.8C722.9,281.8,591.2,437,473.1,405.2z"/>
	
		<radialGradient id="SVGID_00000060747621506460485590000015541331735371563690_" cx="425.3434" cy="457.7782" r="367.0686" gradientTransform="matrix(1 0 0 -1 0 658)" gradientUnits="userSpaceOnUse">
		<stop  offset="5.102040e-03" style="stop-color:#FDF6BA"/>
		<stop  offset="0.481" style="stop-color:#BF953F"/>
	</radialGradient>
	<path style="fill:url(#SVGID_00000060747621506460485590000015541331735371563690_);" d="M769.2,179.3
		C742.4,103.4,669.9,49,584.8,49c-108.1,0-195.7,87.6-195.7,195.6c0,15.2,1.7,30,5,44.2c-14.8,2.3-30.3-12.8-30.3-12.8
		c10.7,20,25.3,33.6,39.8,42.8c0.1,0.2,0.1,0.3,0.2,0.5c6.3,3.8,13.1,7.2,20.3,10.1c12.7,5.2,23.4,7.3,28.5,8
		C520.3,349.1,621.4,318.7,769.2,179.3z"/>
</g>
<g>
	<g>
		<path class="st4" d="M130.9,535.1v-42h18.2c3.8,0,7,0.6,9.7,1.8c2.7,1.2,4.8,3,6.3,5.2c1.5,2.3,2.2,5,2.2,8.1
			c0,3.2-0.7,5.9-2.2,8.1c-1.5,2.3-3.6,4-6.3,5.2s-6,1.9-9.7,1.9h-12.8l4.4-4.4v16L130.9,535.1L130.9,535.1z M140.7,520.2l-4.4-4.6
			h12.3c3,0,5.2-0.6,6.7-1.9c1.5-1.3,2.3-3.1,2.3-5.4s-0.8-4.1-2.3-5.4s-3.8-1.9-6.7-1.9h-12.3l4.4-4.6V520.2z"/>
		<path class="st4" d="M175.7,535.1v-42h18.2c3.8,0,7,0.6,9.7,1.8c2.7,1.2,4.8,3,6.3,5.2c1.5,2.3,2.2,5,2.2,8.1
			c0,3.2-0.7,5.9-2.2,8.1c-1.5,2.3-3.6,4-6.3,5.2c-2.7,1.2-6,1.8-9.7,1.8h-12.8l4.4-4.2v16H175.7z M185.5,520.2l-4.4-4.6h12.3
			c3,0,5.2-0.6,6.7-1.9c1.5-1.3,2.3-3.1,2.3-5.4s-0.8-4.1-2.3-5.4s-3.8-1.9-6.7-1.9h-12.3l4.4-4.6V520.2z M202.5,535.1l-10.6-15.2
			h10.4l10.6,15.2H202.5z"/>
		<path class="st4" d="M241.1,535.8c-3.3,0-6.4-0.5-9.2-1.6c-2.8-1.1-5.2-2.6-7.3-4.6c-2.1-2-3.7-4.3-4.8-6.9
			c-1.1-2.6-1.7-5.5-1.7-8.6c0-3.2,0.6-6,1.7-8.7c1.1-2.6,2.8-4.9,4.8-6.9c2.1-2,4.5-3.5,7.3-4.6s5.8-1.6,9.1-1.6
			c3.3,0,6.4,0.5,9.2,1.6c2.8,1.1,5.2,2.6,7.3,4.5c2.1,2,3.7,4.3,4.8,6.9c1.1,2.6,1.7,5.5,1.7,8.7c0,3.1-0.6,6-1.7,8.7
			s-2.8,5-4.8,6.9c-2.1,2-4.5,3.5-7.3,4.5C247.4,535.3,244.4,535.8,241.1,535.8z M241.1,527.6c1.9,0,3.6-0.3,5.2-1s3-1.6,4.2-2.8
			s2.1-2.6,2.8-4.3c0.7-1.6,1-3.4,1-5.4s-0.3-3.8-1-5.4s-1.6-3-2.8-4.3c-1.2-1.2-2.6-2.2-4.2-2.8c-1.6-0.7-3.3-1-5.2-1
			c-1.9,0-3.6,0.3-5.2,1s-3,1.6-4.2,2.8c-1.2,1.2-2.1,2.6-2.8,4.3s-1,3.4-1,5.4s0.3,3.8,1,5.4s1.6,3,2.8,4.3
			c1.2,1.2,2.6,2.2,4.2,2.8C237.5,527.2,239.2,527.6,241.1,527.6z"/>
		<path class="st4" d="M282.1,535.1h-9.8v-42H304v7.8h-22L282.1,535.1L282.1,535.1z M281.3,512h20.2v7.8h-20.2V512z"/>
		<path class="st4" d="M321.2,527.3h22.9v7.8h-32.5v-42h31.7v7.8h-22.1V527.3z M320.5,509.9h20.2v7.6h-20.2V509.9z"/>
		<path class="st4" d="M366.5,535.8c-3.4,0-6.6-0.5-9.7-1.3c-3.1-0.9-5.6-2.1-7.5-3.5l3.3-7.3c1.8,1.3,3.9,2.3,6.4,3.2
			c2.5,0.8,5,1.2,7.5,1.2c1.9,0,3.5-0.2,4.7-0.6c1.2-0.4,2-0.9,2.6-1.6c0.6-0.7,0.8-1.4,0.8-2.3c0-1.1-0.4-2-1.3-2.7
			s-2.1-1.2-3.5-1.6c-1.5-0.4-3.1-0.8-4.8-1.2c-1.7-0.4-3.4-0.8-5.2-1.4c-1.7-0.5-3.3-1.3-4.8-2.2s-2.6-2.1-3.5-3.5
			c-0.9-1.5-1.3-3.3-1.3-5.5c0-2.4,0.6-4.6,1.9-6.6s3.2-3.6,5.9-4.7c2.6-1.2,5.9-1.8,9.9-1.8c2.6,0,5.2,0.3,7.8,1
			c2.6,0.6,4.8,1.6,6.8,2.8l-3.1,7.3c-1.9-1.1-3.8-1.9-5.8-2.4s-3.9-0.8-5.8-0.8s-3.5,0.2-4.6,0.6c-1.2,0.4-2,1-2.5,1.7
			s-0.8,1.5-0.8,2.4c0,1.1,0.4,2,1.3,2.7s2,1.2,3.5,1.6s3,0.8,4.8,1.1c1.8,0.4,3.5,0.9,5.2,1.4c1.7,0.6,3.3,1.3,4.7,2.1
			c1.4,0.9,2.6,2,3.5,3.5s1.4,3.3,1.4,5.4c0,2.4-0.7,4.5-2,6.5s-3.3,3.5-5.9,4.7C373.8,535.2,370.5,535.8,366.5,535.8z"/>
		<path class="st4" d="M405.7,535.8c-3.4,0-6.6-0.5-9.7-1.3c-3.1-0.9-5.6-2.1-7.5-3.5l3.3-7.3c1.8,1.3,3.9,2.3,6.4,3.2
			c2.5,0.8,5,1.2,7.5,1.2c1.9,0,3.5-0.2,4.7-0.6c1.2-0.4,2-0.9,2.6-1.6c0.6-0.7,0.8-1.4,0.8-2.3c0-1.1-0.4-2-1.3-2.7
			s-2.1-1.2-3.5-1.6c-1.5-0.4-3.1-0.8-4.8-1.2c-1.7-0.4-3.4-0.8-5.2-1.4c-1.7-0.5-3.3-1.3-4.8-2.2s-2.6-2.1-3.5-3.5
			c-0.9-1.5-1.3-3.3-1.3-5.5c0-2.4,0.6-4.6,1.9-6.6s3.2-3.6,5.9-4.7c2.6-1.2,5.9-1.8,9.9-1.8c2.6,0,5.2,0.3,7.8,1
			c2.6,0.6,4.8,1.6,6.8,2.8l-3.1,7.3c-1.9-1.1-3.8-1.9-5.8-2.4s-3.9-0.8-5.8-0.8s-3.5,0.2-4.6,0.6c-1.2,0.4-2,1-2.5,1.7
			s-0.8,1.5-0.8,2.4c0,1.1,0.4,2,1.3,2.7s2,1.2,3.5,1.6s3,0.8,4.8,1.1c1.8,0.4,3.5,0.9,5.2,1.4c1.7,0.6,3.3,1.3,4.7,2.1
			c1.4,0.9,2.6,2,3.5,3.5s1.4,3.3,1.4,5.4c0,2.4-0.7,4.5-2,6.5s-3.3,3.5-5.9,4.7C413,535.2,409.7,535.8,405.7,535.8z"/>
		<path class="st4" d="M431,535.1v-42h9.8v42H431z"/>
		<path class="st4" d="M472,535.8c-3.3,0-6.4-0.5-9.2-1.6s-5.2-2.6-7.3-4.6s-3.7-4.3-4.8-6.9c-1.1-2.6-1.7-5.5-1.7-8.6
			c0-3.2,0.6-6,1.7-8.7c1.1-2.6,2.8-4.9,4.8-6.9c2.1-2,4.5-3.5,7.3-4.6s5.8-1.6,9.1-1.6s6.4,0.5,9.2,1.6s5.2,2.6,7.3,4.5
			c2.1,2,3.7,4.3,4.8,6.9s1.7,5.5,1.7,8.7c0,3.1-0.6,6-1.7,8.7c-1.1,2.7-2.8,5-4.8,6.9c-2.1,2-4.5,3.5-7.3,4.5
			C478.3,535.3,475.3,535.8,472,535.8z M472,527.6c1.9,0,3.6-0.3,5.2-1c1.6-0.7,3-1.6,4.2-2.8s2.1-2.6,2.8-4.3c0.7-1.6,1-3.4,1-5.4
			s-0.3-3.8-1-5.4s-1.6-3-2.8-4.3c-1.2-1.2-2.6-2.2-4.2-2.8c-1.6-0.7-3.3-1-5.2-1s-3.6,0.3-5.2,1c-1.6,0.7-3,1.6-4.2,2.8
			c-1.2,1.2-2.1,2.6-2.8,4.3s-1,3.4-1,5.4s0.3,3.8,1,5.4s1.6,3,2.8,4.3c1.2,1.2,2.6,2.2,4.2,2.8C468.3,527.2,470.1,527.6,472,527.6z
			"/>
		<path class="st4" d="M503.2,535.1v-42h8l24.8,30.2h-3.9v-30.2h9.6v42h-8l-24.8-30.2h3.9v30.2H503.2z"/>
		<path class="st4" d="M547,535.1l18.7-42h9.6l18.8,42h-10.2L568.5,498h3.9L557,535.1H547z M556.4,526.1l2.5-7.4h21.7l2.5,7.4H556.4
			z"/>
		<path class="st4" d="M599.4,535.1v-42h9.8v34.1h20.9v7.9H599.4z"/>
		<path class="st4" d="M663.1,535.1V501h-13.4v-7.9h36.6v7.9h-13.4v34.1H663.1z"/>
		<path class="st4" d="M702.1,527.3H725v7.8h-32.5v-42h31.7v7.8h-22.1L702.1,527.3L702.1,527.3z M701.3,509.9h20.2v7.6h-20.2V509.9z
			"/>
		<path class="st4" d="M753.7,535.8c-3.2,0-6.3-0.5-9-1.6c-2.8-1.1-5.2-2.6-7.2-4.5c-2-2-3.6-4.3-4.8-6.9c-1.1-2.6-1.7-5.5-1.7-8.7
			s0.6-6.1,1.7-8.7c1.1-2.6,2.7-4.9,4.8-6.9s4.5-3.5,7.3-4.5c2.8-1.1,5.8-1.6,9-1.6c3.6,0,6.9,0.6,9.9,1.9s5.4,3.1,7.4,5.5l-6.3,5.8
			c-1.4-1.6-3-2.9-4.8-3.7c-1.8-0.8-3.7-1.3-5.8-1.3c-2,0-3.8,0.3-5.4,1c-1.6,0.7-3.1,1.6-4.3,2.8s-2.1,2.6-2.8,4.3
			c-0.7,1.6-1,3.5-1,5.5s0.3,3.8,1,5.5c0.7,1.6,1.6,3.1,2.8,4.3s2.6,2.1,4.3,2.8c1.6,0.7,3.4,1,5.4,1c2.1,0,4-0.4,5.8-1.3
			c1.8-0.9,3.4-2.1,4.8-3.8l6.3,5.8c-2,2.4-4.5,4.3-7.4,5.6C760.7,535.1,757.3,535.8,753.7,535.8z"/>
		<path class="st4" d="M788.2,535.1h-9.8v-42h9.8V535.1z M808,517.8h-20.5v-8.2H808V517.8z M807.2,493.1h9.7v42h-9.7V493.1z"/>
		<path class="st4" d="M827.8,535.1v-42h8l24.8,30.2h-3.9v-30.2h9.6v42h-8l-24.8-30.2h3.9v30.2H827.8z"/>
		<path class="st4" d="M897.6,535.8c-3.3,0-6.4-0.5-9.2-1.6s-5.2-2.6-7.3-4.6s-3.7-4.3-4.8-6.9c-1.1-2.6-1.7-5.5-1.7-8.6
			c0-3.2,0.6-6,1.7-8.7c1.1-2.6,2.8-4.9,4.8-6.9c2.1-2,4.5-3.5,7.3-4.6s5.8-1.6,9.2-1.6c3.3,0,6.4,0.5,9.2,1.6s5.2,2.6,7.3,4.5
			s3.7,4.3,4.8,6.9s1.7,5.5,1.7,8.7c0,3.1-0.6,6-1.7,8.7c-1.1,2.7-2.8,5-4.8,6.9c-2.1,2-4.5,3.5-7.3,4.5
			C903.9,535.3,900.9,535.8,897.6,535.8z M897.5,527.6c1.9,0,3.6-0.3,5.2-1s3-1.6,4.2-2.8s2.1-2.6,2.8-4.3c0.7-1.6,1-3.4,1-5.4
			s-0.3-3.8-1-5.4s-1.6-3-2.8-4.3c-1.2-1.2-2.6-2.2-4.2-2.8s-3.3-1-5.2-1s-3.6,0.3-5.2,1c-1.6,0.7-3,1.6-4.2,2.8
			c-1.2,1.2-2.1,2.6-2.8,4.3s-1,3.4-1,5.4s0.3,3.8,1,5.4s1.6,3,2.8,4.3c1.2,1.2,2.6,2.2,4.2,2.8
			C893.9,527.2,895.7,527.6,897.5,527.6z"/>
		<path class="st4" d="M928.7,535.1v-42h9.8v34.1h20.9v7.9H928.7z"/>
		<path class="st4" d="M986.3,535.8c-3.3,0-6.4-0.5-9.2-1.6s-5.2-2.6-7.3-4.6c-2.1-2-3.7-4.3-4.8-6.9c-1.1-2.6-1.7-5.5-1.7-8.6
			c0-3.2,0.6-6,1.7-8.7c1.1-2.6,2.8-4.9,4.8-6.9c2.1-2,4.5-3.5,7.3-4.6s5.8-1.6,9.2-1.6c3.3,0,6.4,0.5,9.2,1.6
			c2.8,1.1,5.2,2.6,7.3,4.5s3.7,4.3,4.8,6.9c1.1,2.6,1.7,5.5,1.7,8.7c0,3.1-0.6,6-1.7,8.7s-2.8,5-4.8,6.9c-2.1,2-4.5,3.5-7.3,4.5
			C992.6,535.3,989.5,535.8,986.3,535.8z M986.2,527.6c1.9,0,3.6-0.3,5.2-1s3-1.6,4.2-2.8s2.1-2.6,2.8-4.3c0.7-1.6,1-3.4,1-5.4
			s-0.3-3.8-1-5.4s-1.6-3-2.8-4.3c-1.2-1.2-2.6-2.2-4.2-2.8s-3.3-1-5.2-1c-1.9,0-3.6,0.3-5.2,1s-3,1.6-4.2,2.8
			c-1.2,1.2-2.1,2.6-2.8,4.3s-1,3.4-1,5.4s0.3,3.8,1,5.4s1.6,3,2.8,4.3c1.2,1.2,2.6,2.2,4.2,2.8
			C982.6,527.2,984.3,527.6,986.2,527.6z"/>
		<path class="st4" d="M1037.7,535.8c-3.3,0-6.4-0.5-9.2-1.6c-2.8-1.1-5.2-2.6-7.3-4.5c-2-2-3.6-4.3-4.8-6.9
			c-1.1-2.6-1.7-5.5-1.7-8.7s0.6-6.1,1.7-8.7s2.8-4.9,4.8-6.9c2.1-2,4.5-3.5,7.3-4.5c2.8-1.1,5.9-1.6,9.2-1.6
			c3.7,0,7.1,0.6,10.1,1.9c3,1.2,5.5,3,7.5,5.4l-6.2,5.8c-1.6-1.6-3.2-2.8-5-3.6s-3.8-1.2-5.9-1.2c-2,0-3.8,0.3-5.5,1
			s-3.1,1.6-4.3,2.8c-1.2,1.2-2.2,2.6-2.8,4.3c-0.7,1.6-1,3.5-1,5.5c0,1.9,0.3,3.7,1,5.4s1.6,3.1,2.8,4.3c1.2,1.2,2.7,2.1,4.3,2.8
			c1.7,0.7,3.5,1,5.5,1c1.9,0,3.8-0.3,5.6-1c1.8-0.6,3.6-1.7,5.3-3.2l5.5,7c-2.3,1.8-5,3.1-8,4
			C1043.7,535.3,1040.7,535.8,1037.7,535.8z M1045.8,529.2v-15.8h8.9v17L1045.8,529.2z"/>
		<path class="st4" d="M1075,535.1v-17.2l2.2,5.9l-18.5-30.7h10.4l14.2,23.5h-5.9l14.2-23.5h9.5l-18.4,30.7l2.2-5.9v17.2H1075z"/>
		<path class="st5" d="M47,611.1v-42h15.7c3.6,0,6.6,0.6,9.2,1.7c2.6,1.1,4.5,2.8,5.9,4.9c1.4,2.1,2.1,4.7,2.1,7.8
			c0,3-0.7,5.5-2.1,7.6c-1.4,2.1-3.4,3.8-5.9,4.9c-2.6,1.1-5.6,1.7-9.2,1.7H49.4l2-2v15.4L47,611.1L47,611.1z M51.4,596.1l-2-2.1
			h13.1c4.2,0,7.4-0.9,9.6-2.8c2.2-1.8,3.3-4.4,3.3-7.7c0-3.4-1.1-6-3.3-7.8s-5.4-2.8-9.6-2.8H49.4l2-2.1
			C51.4,570.8,51.4,596.1,51.4,596.1z M75.7,611.1l-10.8-15.2h4.8l10.9,15.2H75.7z"/>
		<path class="st5" d="M96.9,607.2h25.3v3.8H92.5v-42h28.8v3.8H96.9L96.9,607.2L96.9,607.2z M96.4,587.8h22.2v3.8H96.4V587.8z"/>
		<path class="st5" d="M152.9,611.4c-3.2,0-6.1-0.5-8.8-1.6s-5-2.5-7-4.5c-2-1.9-3.5-4.2-4.6-6.8s-1.6-5.4-1.6-8.5s0.5-5.9,1.6-8.5
			s2.6-4.9,4.6-6.8s4.3-3.4,7-4.5s5.6-1.6,8.8-1.6c3,0,5.9,0.5,8.6,1.5c2.7,1,4.9,2.5,6.8,4.6l-2.8,2.8c-1.7-1.8-3.6-3-5.7-3.8
			c-2.1-0.8-4.3-1.2-6.7-1.2c-2.5,0-4.9,0.4-7,1.3c-2.2,0.9-4,2.1-5.6,3.7c-1.6,1.6-2.9,3.4-3.8,5.5c-0.9,2.1-1.4,4.4-1.4,6.9
			s0.5,4.8,1.4,6.9c0.9,2.1,2.1,3.9,3.8,5.5c1.6,1.6,3.5,2.8,5.6,3.7c2.2,0.9,4.5,1.3,7,1.3c2.4,0,4.6-0.4,6.7-1.2
			c2.1-0.8,4-2.1,5.7-3.8l2.8,2.8c-1.8,2-4.1,3.6-6.8,4.6C158.9,610.9,156,611.4,152.9,611.4z"/>
		<path class="st5" d="M179.9,611.1v-42h15.8c3.6,0,6.6,0.6,9.2,1.7c2.6,1.1,4.5,2.8,5.9,4.9c1.4,2.1,2.1,4.7,2.1,7.8
			c0,3-0.7,5.5-2.1,7.6s-3.4,3.8-5.9,4.9c-2.6,1.1-5.6,1.7-9.2,1.7h-13.3l2-2v15.4L179.9,611.1L179.9,611.1z M184.4,596.1l-2-2.1
			h13.1c4.2,0,7.4-0.9,9.6-2.8c2.2-1.8,3.3-4.4,3.3-7.7c0-3.4-1.1-6-3.3-7.8c-2.2-1.8-5.4-2.8-9.6-2.8h-13.1l2-2.1V596.1z
			 M208.6,611.1l-10.8-15.2h4.8l10.9,15.2H208.6z"/>
		<path class="st5" d="M242.3,611.4c-5.4,0-9.6-1.5-12.7-4.6s-4.6-7.6-4.6-13.7V569h4.4v23.9c0,5,1.1,8.6,3.4,11
			c2.2,2.4,5.4,3.5,9.5,3.5s7.3-1.2,9.5-3.5c2.2-2.4,3.4-6,3.4-11V569h4.3v24.1c0,6-1.5,10.6-4.6,13.7
			C251.8,609.9,247.7,611.4,242.3,611.4z"/>
		<path class="st5" d="M275,611.1v-42h4.4v42H275z"/>
		<path class="st5" d="M303.4,611.1v-38.2h-14.7v-3.8h34v3.8h-14.8v38.2H303.4z"/>
		<path class="st5" d="M331.8,611.1v-42h3.7l19.2,32.8h-2l19-32.8h3.7v42h-4.3v-35.3h1l-17.5,30h-2.1l-17.6-30h1.1v35.3H331.8z"/>
		<path class="st5" d="M395.6,607.2h25.3v3.8h-29.7v-42H420v3.8h-24.4L395.6,607.2L395.6,607.2z M395.2,587.8h22.2v3.8h-22.2V587.8z
			"/>
		<path class="st5" d="M433.4,611.1v-42h3.7l29,36.5h-1.9v-36.5h4.4v42h-3.7L436,574.6h1.9v36.5H433.4z"/>
		<path class="st5" d="M492.5,611.1v-38.2h-14.8v-3.8h34v3.8h-14.8v38.2H492.5z"/>
		<path class="st5" d="M546.8,611.1v-38.2H532v-3.8h34v3.8h-14.8v38.2H546.8z"/>
		<path class="st5" d="M575.2,611.1v-42h15.7c3.6,0,6.6,0.6,9.2,1.7c2.6,1.1,4.5,2.8,5.9,4.9c1.4,2.1,2.1,4.7,2.1,7.8
			c0,3-0.7,5.5-2.1,7.6c-1.4,2.1-3.4,3.8-5.9,4.9c-2.6,1.1-5.6,1.7-9.2,1.7h-13.2l2-2v15.4L575.2,611.1L575.2,611.1z M579.7,596.1
			l-2-2.1h13.1c4.2,0,7.4-0.9,9.6-2.8c2.2-1.8,3.3-4.4,3.3-7.7c0-3.4-1.1-6-3.3-7.8s-5.4-2.8-9.6-2.8h-13.1l2-2.1V596.1z
			 M603.9,611.1l-10.8-15.2h4.8l10.9,15.2H603.9z"/>
		<path class="st5" d="M614,611.1l19.2-42h4.4l19.2,42h-4.7l-17.6-39.4h1.8l-17.6,39.4H614z M621.5,599.8l1.3-3.6h24.4l1.3,3.6
			H621.5z"/>
		<path class="st5" d="M665.8,611.1v-42h4.4v42H665.8z"/>
		<path class="st5" d="M686,611.1v-42h3.7l29,36.5h-1.9v-36.5h4.4v42h-3.7l-28.9-36.5h1.9v36.5H686z"/>
		<path class="st5" d="M736.9,611.1v-42h4.4v42H736.9z"/>
		<path class="st5" d="M757.1,611.1v-42h3.7l29,36.5h-1.9v-36.5h4.4v42h-3.7l-28.9-36.5h1.9v36.5H757.1z"/>
		<path class="st5" d="M826.4,611.4c-3.2,0-6.1-0.5-8.8-1.6s-5-2.5-7-4.5c-2-1.9-3.5-4.2-4.6-6.8s-1.7-5.4-1.7-8.5s0.5-5.9,1.7-8.5
			c1.1-2.6,2.6-4.9,4.6-6.8s4.4-3.4,7.1-4.5c2.7-1.1,5.6-1.6,8.8-1.6s6.1,0.5,8.8,1.5s4.9,2.5,6.8,4.6l-2.8,2.8
			c-1.8-1.8-3.7-3-5.8-3.8s-4.4-1.1-6.8-1.1c-2.6,0-5,0.4-7.2,1.3c-2.2,0.9-4.1,2.1-5.7,3.7c-1.6,1.6-2.9,3.4-3.8,5.5
			c-0.9,2.1-1.4,4.4-1.4,6.9s0.5,4.8,1.4,6.9c0.9,2.1,2.2,4,3.8,5.5s3.5,2.8,5.7,3.7s4.5,1.3,7.1,1.3c2.4,0,4.7-0.4,6.8-1.1
			c2.1-0.7,4.1-1.9,5.9-3.7l2.5,3.4c-2,1.8-4.3,3.1-7,4C832.2,611,829.4,611.4,826.4,611.4z M837.6,605.5V590h4.3v16L837.6,605.5z"
			/>
		<path class="st5" d="M892.6,611.4c-3.2,0-6.1-0.5-8.8-1.6s-5-2.5-7-4.5s-3.5-4.2-4.6-6.8s-1.6-5.4-1.6-8.5s0.5-5.9,1.6-8.5
			s2.6-4.9,4.6-6.8c2-1.9,4.3-3.4,7-4.5s5.6-1.6,8.8-1.6c3,0,5.9,0.5,8.6,1.5c2.7,1,4.9,2.5,6.8,4.6l-2.8,2.8
			c-1.7-1.8-3.6-3-5.7-3.8c-2.1-0.8-4.3-1.2-6.7-1.2c-2.5,0-4.9,0.4-7,1.3c-2.2,0.9-4,2.1-5.6,3.7c-1.6,1.6-2.8,3.4-3.8,5.5
			c-0.9,2.1-1.3,4.4-1.3,6.9s0.5,4.8,1.3,6.9c0.9,2.1,2.1,3.9,3.8,5.5c1.6,1.6,3.5,2.8,5.6,3.7c2.2,0.9,4.5,1.3,7,1.3
			c2.4,0,4.6-0.4,6.7-1.2c2.1-0.8,4-2.1,5.7-3.8l2.8,2.8c-1.8,2-4.1,3.6-6.8,4.6C898.5,610.9,895.6,611.4,892.6,611.4z"/>
		<path class="st5" d="M937.9,611.4c-3.2,0-6.1-0.5-8.8-1.6s-5-2.6-7-4.5s-3.5-4.2-4.6-6.8s-1.7-5.4-1.7-8.5s0.5-5.9,1.7-8.5
			c1.1-2.6,2.6-4.8,4.6-6.8c2-1.9,4.3-3.4,7-4.5s5.6-1.6,8.8-1.6s6.1,0.5,8.8,1.6s5,2.5,7,4.5c2,1.9,3.5,4.2,4.6,6.8
			s1.7,5.4,1.7,8.5s-0.6,5.9-1.7,8.5s-2.6,4.9-4.6,6.8c-2,1.9-4.3,3.4-7,4.5S941.1,611.4,937.9,611.4z M937.9,607.5
			c2.5,0,4.8-0.4,7-1.3c2.1-0.9,4-2.1,5.6-3.7c1.6-1.6,2.8-3.4,3.7-5.5c0.9-2.1,1.3-4.4,1.3-6.9s-0.4-4.8-1.3-6.9
			c-0.9-2.1-2.1-3.9-3.7-5.5s-3.4-2.8-5.6-3.7c-2.1-0.9-4.5-1.3-7-1.3s-4.9,0.4-7,1.3c-2.2,0.9-4,2.1-5.6,3.7
			c-1.6,1.6-2.8,3.4-3.7,5.5s-1.3,4.4-1.3,6.9s0.4,4.8,1.3,6.9c0.9,2.1,2.1,4,3.7,5.5c1.6,1.6,3.5,2.8,5.6,3.7
			C933,607,935.4,607.5,937.9,607.5z"/>
		<path class="st5" d="M972,611.1v-42h3.7l19.2,32.8H993l19-32.8h3.7v42h-4.3v-35.3h1l-17.5,30h-2.1l-17.6-30h1.1v35.3H972z"/>
		<path class="st5" d="M1031.4,611.1v-42h15.7c3.6,0,6.6,0.6,9.2,1.7c2.6,1.1,4.5,2.8,5.9,4.9c1.4,2.1,2.1,4.7,2.1,7.8
			c0,3-0.7,5.5-2.1,7.6s-3.4,3.8-5.9,5c-2.6,1.2-5.6,1.7-9.2,1.7h-13.3l2-2.1v15.4L1031.4,611.1L1031.4,611.1z M1035.8,596.1l-2-2.2
			h13.1c4.2,0,7.4-0.9,9.6-2.7s3.3-4.4,3.3-7.7c0-3.4-1.1-6-3.3-7.8c-2.2-1.8-5.4-2.8-9.6-2.8h-13.1l2-2.1V596.1z"/>
		<path class="st5" d="M1069.8,611.1l19.2-42h4.4l19.2,42h-4.7l-17.6-39.4h1.8l-17.6,39.4H1069.8z M1077.4,599.8l1.3-3.6h24.4
			l1.3,3.6H1077.4z"/>
		<path class="st5" d="M1121.7,611.1v-42h3.7l29,36.5h-1.9v-36.5h4.4v42h-3.7l-28.9-36.5h1.9v36.5H1121.7z"/>
		<path class="st5" d="M1182.6,611.1v-15.6l1,2.8l-17.8-29.2h4.7l15.7,25.6h-2.5l15.7-25.6h4.4l-17.8,29.2l1-2.8v15.6H1182.6z"/>
	</g>
</g>
</svg>
